<svg id="Capa_1" data-name="Capa 1" xmlns="http://www.w3.org/2000/svg" viewBox="0 0 525.15302 525.15302"><defs><style>.cls-1{fill:#fafafa;}</style></defs><title>big-and-small-dots2</title><path class="cls-1" d="M96.781,290.234a27.658,27.658,0,1,0,27.658,27.658A27.70306,27.70306,0,0,0,96.781,290.234Zm0,110.479a27.658,27.658,0,1,0,27.658,27.658A27.77349,27.77349,0,0,0,96.781,400.713Zm0-221.089a27.658,27.658,0,1,0,27.658,27.658A27.77351,27.77351,0,0,0,96.781,179.624ZM13.829,193.453a13.829,13.829,0,1,0,0,27.658,13.829,13.829,0,1,0,0-27.658ZM96.781,69.123a27.658,27.658,0,1,0,27.658,27.658A27.70305,27.70305,0,0,0,96.781,69.123ZM511.324,221.089a13.829,13.829,0,1,0-13.829-13.829A13.71979,13.71979,0,0,0,511.324,221.089ZM317.87,124.439a27.658,27.658,0,1,0-27.658-27.658A27.84459,27.84459,0,0,0,317.87,124.439Zm0-96.781a13.71982,13.71982,0,0,0,13.829-13.829,13.829,13.829,0,0,0-27.658,0A13.73354,13.73354,0,0,0,317.87,27.658ZM13.829,304.063a13.818,13.818,0,1,0,0,27.636,13.818,13.818,0,1,0,0-27.636ZM207.282,497.495a13.829,13.829,0,1,0,13.829,13.829A13.71981,13.71981,0,0,0,207.282,497.495Zm0-469.837a13.7198,13.7198,0,0,0,13.829-13.829,13.829,13.829,0,1,0-27.658,0A13.71981,13.71981,0,0,0,207.282,27.658Zm0,96.781a27.658,27.658,0,1,0-27.658-27.658A27.7735,27.7735,0,0,0,207.282,124.439Zm0,151.966a41.487,41.487,0,1,0,41.487,41.487A41.4074,41.4074,0,0,0,207.282,276.405Zm221.089,13.829a27.658,27.658,0,1,0,27.658,27.658A27.77347,27.77347,0,0,0,428.371,290.234Zm0,110.479a27.658,27.658,0,1,0,27.658,27.658A27.84459,27.84459,0,0,0,428.371,400.713Zm0-221.089a27.658,27.658,0,1,0,27.658,27.658A27.84461,27.84461,0,0,0,428.371,179.624Zm0-110.501a27.658,27.658,0,1,0,27.658,27.658A27.77347,27.77347,0,0,0,428.371,69.123Zm82.953,234.94a13.829,13.829,0,1,0,13.829,13.807A13.71982,13.71982,0,0,0,511.324,304.063ZM317.87,400.713a27.658,27.658,0,1,0,27.658,27.658A27.77348,27.77348,0,0,0,317.87,400.713Zm0,96.782a13.829,13.829,0,1,0,13.829,13.829A13.71982,13.71982,0,0,0,317.87,497.495Zm-110.588-331.7a41.487,41.487,0,1,0,41.487,41.487A41.4074,41.4074,0,0,0,207.282,165.795Zm0,234.918a27.658,27.658,0,1,0,27.658,27.658A27.8446,27.8446,0,0,0,207.282,400.713ZM317.87,276.405a41.487,41.487,0,1,0,41.487,41.487A41.4074,41.4074,0,0,0,317.87,276.405Zm0-110.61a41.487,41.487,0,1,0,41.487,41.487A41.4074,41.4074,0,0,0,317.87,165.795Z"/></svg>