<svg id="Layer_1" data-name="Layer 1" xmlns="http://www.w3.org/2000/svg" viewBox="0 0 368 372.75314"><defs><style>.cls-1{fill:#3e3e3e;}</style></defs><title>protocol logo side menu</title><path class="cls-1" d="M116.06977,249.40944a19.79071,19.79071,0,1,1-19.7907-19.81111,19.80336,19.80336,0,0,1,19.7907,19.81111m314.51162,0a19.79071,19.79071,0,1,1-19.78592-19.81111,19.80846,19.80846,0,0,1,19.78592,19.81111M273.32558,327.60431a19.79071,19.79071,0,1,1-19.7883-19.81351,19.8071,19.8071,0,0,1,19.7883,19.81351M194.16279,289.046a19.79071,19.79071,0,1,1-19.79308-19.81589A19.80521,19.80521,0,0,1,194.16279,289.046m157.25582,0a19.79072,19.79072,0,1,1-19.7883-19.81589,19.80725,19.80725,0,0,1,19.7883,19.81589M109.65116,309.40231a13.37211,13.37211,0,1,1-13.36487-13.394,13.37995,13.37995,0,0,1,13.36487,13.394m314.51162,0a13.3721,13.3721,0,1,1-13.37207-13.394,13.387,13.387,0,0,1,13.37207,13.394M266.907,388.65146A13.37209,13.37209,0,1,1,253.5397,375.272,13.39074,13.39074,0,0,1,266.907,388.65146m-79.16279-39.61734a13.37211,13.37211,0,1,1-13.36728-13.39395,13.375,13.375,0,0,1,13.36728,13.39395m157.25581,0a13.37211,13.37211,0,1,1-13.36487-13.39395A13.37992,13.37992,0,0,1,345,349.03412m-241.76744,7.48569a6.95349,6.95349,0,1,1-6.951-6.955,6.9579,6.9579,0,0,1,6.951,6.955m314.51161,0a6.95348,6.95348,0,1,1-6.951-6.955,6.96246,6.96246,0,0,1,6.951,6.955m-157.2558,79.26605a6.95349,6.95349,0,1,1-6.951-6.9574,6.96438,6.96438,0,0,1,6.951,6.9574M181.32558,396.159a6.9535,6.9535,0,1,1-6.956-6.96234,6.963,6.963,0,0,1,6.956,6.96234m157.25581,0a6.95349,6.95349,0,1,1-6.951-6.96234,6.96332,6.96332,0,0,1,6.951,6.96234M279.74419,96.77872A26.74421,26.74421,0,1,1,253.00719,70a26.75856,26.75856,0,0,1,26.737,26.77872m0,79.26312a26.74421,26.74421,0,1,1-26.737-26.77824,26.76023,26.76023,0,0,1,26.737,26.77824m0,78.19727a26.74422,26.74422,0,1,1-26.737-26.783,26.76058,26.76058,0,0,1,26.737,26.783M437,176.04184a26.74421,26.74421,0,1,1-26.74179-26.77824A26.75987,26.75987,0,0,1,437,176.04184m-314.51163,0A26.74421,26.74421,0,1,1,95.74658,149.2636a26.75817,26.75817,0,0,1,26.74179,26.77824m79.1628-39.6318A26.74421,26.74421,0,1,1,174.907,109.6318,26.76076,26.76076,0,0,1,201.65117,136.41m0,78.19007a26.74421,26.74421,0,1,1-26.7442-26.77585,26.762,26.762,0,0,1,26.7442,26.77585M358.907,136.41A26.74421,26.74421,0,1,1,332.1604,109.6318,26.76364,26.76364,0,0,1,358.907,136.41m0,78.19007a26.7442,26.7442,0,1,1-26.74658-26.77585A26.76483,26.76483,0,0,1,358.907,214.60011" transform="translate(-69 -70)"/></svg>